<svg xmlns="http://www.w3.org/2000/svg" version="1.0" width="134.000000ptpx" height="169.000000ptpx" viewBox="0 0 134.000000 169.000000" preserveAspectRatio="xMidYMid meet" style="background: transparent;" transform="rotate(0) scale(1, 1)">
<metadata>
Created by potrace 1.16, written by Peter Selinger 2001-2019
</metadata>
<g transform="translate(0.000000,169.000000) scale(0.100000,-0.100000)" fill="#0e4ff4" stroke="none">
<path d="M556 1645 c-141 -50 -213 -212 -150 -338 45 -88 124 -138 232 -145 66 -4 78 -2 136 27 167 82 194 285 55 404 -73 63 -184 84 -273 52z" data-index="0" style="opacity: 1;"></path>
<path d="M7 1065 c-4 -5 -7 -198 -7 -430 0 -360 2 -424 15 -435 8 -7 52 -17 97 -22 174 -21 339 -76 436 -145 42 -29 54 -33 112 -33 58 0 70 4 114 35 96 68 263 124 426 141 69 7 107 21 115 42 12 32 7 823 -6 838 -14 17 -78 18 -186 3 -150 -20 -302 -74 -405 -142 -30 -20 -58 -37 -61 -37 -4 0 -33 17 -64 37 -80 51 -191 96 -300 122 -99 23 -273 39 -286 26z m283 -156 c100 -27 232 -91 264 -130 l26 -31 0 -289 0 -289 -60 30 c-73 37 -201 74 -309 91 l-81 12 0 320 0 319 43 -7 c23 -3 76 -15 117 -26z m890 -287 l0 -318 -96 -17 c-115 -21 -208 -50 -286 -88 -32 -16 -60 -29 -64 -29 -4 0 -5 133 -2 295 6 338 -2 312 106 372 84 47 232 93 330 102 9 1 12 -69 12 -317z" data-index="1" style="opacity: 1; visibility: visible; fill: rgb(14, 79, 244);"></path>
</g>
</svg>